<svg width="1440" height="572" viewBox="0 0 1440 572" fill="none" xmlns="http://www.w3.org/2000/svg">
<path opacity="0.2" fill-rule="evenodd" clip-rule="evenodd" d="M1497.39 516.811C1465.26 534.349 1407.53 556.667 1338.66 566.667C1269.8 576.668 1189.77 574.355 1113.1 542.593C1089.11 532.657 1072.48 520.459 1061.23 506.684C1049.98 492.907 1044.14 477.579 1041.69 461.418C1037.48 433.62 1043.3 403.307 1048.91 374.151L1048.91 374.136C1049.81 369.439 1050.71 364.772 1051.56 360.151C1054.62 343.471 1057.05 327.377 1056.87 312.54C1056.68 297.708 1053.89 284.166 1046.53 272.571C1031.82 249.395 998.716 233.776 930.941 231.505C828.941 228.086 759.038 257.969 699.815 283.287C680.368 291.6 662.073 299.421 644.171 305.409C607.965 317.52 573.386 322.109 534.249 307.97C495.138 293.841 451.539 261.032 397.222 198.503C342.976 136.058 297.705 117.513 257.321 123.185C216.878 128.865 181.155 158.843 146.047 193.92C137.566 202.393 129.121 211.163 120.657 219.954C94.1299 247.506 67.4093 275.258 38.7718 294.687C19.8704 307.511 0.102226 316.734 -21.0378 319.892C-42.185 323.052 -64.6732 320.137 -89 308.734L-88.5756 307.829C-64.4152 319.154 -42.1253 322.032 -21.1856 318.903C-0.238739 315.774 19.3889 306.629 38.2103 293.86C66.7529 274.495 93.3685 246.852 119.879 219.32C128.357 210.515 136.824 201.721 145.34 193.212C180.436 158.147 216.371 127.926 257.182 122.195C298.051 116.455 343.631 135.286 397.977 197.847C452.25 260.324 495.713 292.985 534.589 307.03C573.439 321.065 607.772 316.53 643.854 304.461C661.656 298.506 679.888 290.711 699.293 282.415L699.294 282.415C758.545 257.084 828.729 227.078 930.975 230.505C998.812 232.779 1032.38 248.412 1047.37 272.035C1054.87 283.838 1057.68 297.582 1057.87 312.528C1058.05 327.469 1055.6 343.644 1052.54 360.331C1051.69 364.963 1050.79 369.633 1049.89 374.329L1049.88 374.366C1044.28 403.536 1038.49 433.655 1042.68 461.268C1045.11 477.281 1050.89 492.435 1062.01 506.052C1073.13 519.672 1089.61 531.781 1113.48 541.669C1189.94 573.344 1269.78 575.661 1338.52 565.678C1407.26 555.694 1464.89 533.414 1496.91 515.933L1497.39 516.811ZM1358.87 526.261C1427.73 516.261 1485.46 493.943 1517.59 476.405L1517.11 475.527C1485.09 493.008 1427.47 515.288 1358.72 525.272C1289.98 535.255 1210.15 532.938 1133.68 501.263C1109.81 491.375 1093.33 479.266 1082.21 465.646C1071.09 452.029 1065.31 436.875 1062.88 420.862C1058.7 393.249 1064.48 363.13 1070.09 333.96L1070.09 333.923C1071 329.227 1071.89 324.557 1072.74 319.925C1075.81 303.238 1078.25 287.063 1078.07 272.122C1077.89 257.176 1075.07 243.432 1067.58 231.629C1052.58 208.006 1019.02 192.373 951.178 190.099C848.932 186.672 778.748 216.678 719.497 242.009L719.496 242.009C700.091 250.305 681.859 258.1 664.057 264.055C627.975 276.124 593.642 280.659 554.792 266.624C515.916 252.579 472.453 219.918 418.18 157.441C363.834 94.8803 318.254 76.049 277.385 81.7889C236.574 87.5204 200.639 117.741 165.543 152.806C157.027 161.315 148.56 170.109 140.082 178.914C113.571 206.447 86.9559 234.089 58.4133 253.454C39.5919 266.223 19.9642 275.368 -0.982613 278.497C-21.9223 281.626 -44.2122 278.748 -68.3726 267.423L-68.797 268.328C-44.4702 279.731 -21.982 282.646 -0.834854 279.486C20.3052 276.328 40.0734 267.105 58.9747 254.281C87.6123 234.852 114.333 207.1 140.86 179.548C149.324 170.757 157.769 161.987 166.25 153.514C201.358 118.437 237.081 88.4591 277.524 82.7791C317.908 77.1075 363.179 95.6517 417.425 158.097C471.742 220.626 515.341 253.435 554.452 267.564C593.589 281.703 628.168 277.114 664.374 265.003C682.276 259.015 700.571 251.194 720.018 242.881C779.241 217.563 849.144 187.68 951.144 191.099C1018.92 193.37 1052.02 208.989 1066.73 232.165C1074.09 243.76 1076.89 257.302 1077.07 272.134C1077.25 286.971 1074.82 303.065 1071.76 319.745C1070.91 324.361 1070.02 329.023 1069.12 333.715L1069.11 333.729L1069.11 333.745C1063.51 362.901 1057.68 393.214 1061.89 421.012C1064.34 437.173 1070.19 452.501 1081.44 466.279C1092.68 480.053 1109.32 492.251 1133.3 502.187C1209.98 533.949 1290 536.262 1358.87 526.261ZM1537.79 435.999C1505.67 453.537 1447.93 475.855 1379.07 485.855C1310.2 495.856 1230.18 493.543 1153.5 461.781C1129.52 451.845 1112.89 439.647 1101.64 425.873C1090.39 412.095 1084.55 396.767 1082.1 380.606C1077.88 352.808 1083.71 322.495 1089.31 293.339L1089.32 293.323L1089.32 293.309C1090.22 288.617 1091.12 283.955 1091.96 279.339C1095.03 262.659 1097.46 246.565 1097.27 231.728C1097.09 216.896 1094.3 203.354 1086.94 191.759C1072.22 168.583 1039.12 152.964 971.347 150.693C869.347 147.274 799.444 177.157 740.221 202.475C720.774 210.788 702.479 218.609 684.577 224.597C648.37 236.708 613.792 241.297 574.655 227.158C535.544 213.029 491.945 180.22 437.628 117.691C383.382 55.2457 338.111 36.7015 297.727 42.3732C257.284 48.0532 221.561 78.0307 186.453 113.108C177.972 121.581 169.527 130.351 161.063 139.142C134.536 166.694 107.815 194.446 79.1777 213.875C60.2764 226.699 40.5082 235.922 19.3681 239.08C-1.77905 242.24 -24.2672 239.325 -48.594 227.922L-48.1696 227.017C-24.0092 238.342 -1.71936 241.22 19.2204 238.091C40.1672 234.962 59.7949 225.817 78.6163 213.048C107.159 193.683 133.774 166.041 160.285 138.508L160.285 138.507C168.763 129.702 177.23 120.909 185.746 112.401C220.842 77.3354 256.777 47.1144 297.588 41.3829C338.457 35.6431 384.037 54.4743 438.383 117.035C492.656 179.512 536.119 212.173 574.995 226.218C613.845 240.253 648.177 235.718 684.26 223.649C702.062 217.694 720.294 209.9 739.699 201.603L739.7 201.603C798.951 176.272 869.135 146.266 971.381 149.693C1039.22 151.967 1072.79 167.6 1087.78 191.223C1095.27 203.026 1098.09 216.771 1098.27 231.716C1098.46 246.657 1096.01 262.832 1092.95 279.519C1092.1 284.151 1091.2 288.822 1090.3 293.517L1090.29 293.554C1084.69 322.724 1078.9 352.843 1083.09 380.456C1085.51 396.469 1091.29 411.623 1102.41 425.24C1113.53 438.86 1130.02 450.969 1153.89 460.857C1230.35 492.532 1310.18 494.849 1378.93 484.866C1447.67 474.882 1505.29 452.602 1537.31 435.121L1537.79 435.999ZM1558 395.593C1525.87 413.131 1468.13 435.449 1399.27 445.449C1330.41 455.45 1250.38 453.137 1173.71 421.375C1149.72 411.439 1133.09 399.241 1121.84 385.467C1110.59 371.689 1104.75 356.361 1102.3 340.2C1098.09 312.402 1103.91 282.089 1109.52 252.933L1109.52 252.919L1109.52 252.907L1109.52 252.89C1110.43 248.203 1111.32 243.545 1112.17 238.933C1115.23 222.253 1117.66 206.159 1117.48 191.322C1117.29 176.49 1114.5 162.948 1107.14 151.353C1092.43 128.177 1059.32 112.558 991.55 110.287C889.55 106.868 819.647 136.751 760.424 162.069C740.977 170.382 722.682 178.203 704.78 184.191C668.573 196.302 633.995 200.891 594.858 186.752C555.747 172.623 512.148 139.814 457.831 77.2849C403.585 14.8397 358.314 -3.70447 317.93 1.96716C277.487 7.64722 241.764 37.6248 206.655 72.7019C198.175 81.175 189.73 89.9455 181.266 98.7363C154.739 126.288 128.018 154.04 99.3807 173.469C80.4794 186.293 60.7112 195.516 39.5711 198.674C18.4239 201.834 -4.06425 198.919 -28.391 187.516L-27.9666 186.611C-3.80621 197.936 18.4836 200.814 39.4234 197.685C60.3702 194.556 79.9979 185.411 98.8193 172.642C127.362 153.277 153.977 125.635 180.488 98.1017C188.966 89.2967 197.433 80.5028 205.949 71.9945C241.045 36.9294 276.98 6.7085 317.791 0.976929C358.66 -4.76294 404.24 14.0684 458.586 76.6292C512.859 139.106 556.322 171.767 595.198 185.812C634.048 199.847 668.38 195.312 704.463 183.243C722.265 177.288 740.497 169.494 759.902 161.197L759.903 161.197C819.154 135.866 889.338 105.86 991.584 109.287C1059.42 111.561 1092.99 127.194 1107.98 150.817C1115.47 162.62 1118.29 176.365 1118.48 191.31C1118.66 206.251 1116.21 222.426 1113.15 239.113C1112.3 243.745 1111.4 248.416 1110.5 253.111L1110.49 253.148C1104.89 282.318 1099.1 312.437 1103.29 340.05C1105.72 356.063 1111.5 371.217 1122.62 384.834C1133.74 398.454 1150.22 410.563 1174.09 420.451C1250.55 452.126 1330.39 454.443 1399.13 444.46C1467.87 434.476 1525.5 412.196 1557.52 394.715L1558 395.593Z" fill="url(#paint0_linear_2_1190)"/>
<defs>
<linearGradient id="paint0_linear_2_1190" x1="100.402" y1="145.149" x2="1543.9" y2="145.149" gradientUnits="userSpaceOnUse">
<stop offset="0.310417" stop-color="#4535AF" stop-opacity="0.7"/>
<stop offset="0.461458" stop-color="#F8EFF4" stop-opacity="0.1"/>
<stop offset="0.851637" stop-color="#4535AF" stop-opacity="0.8"/>
</linearGradient>
</defs>
</svg>
